<svg width="245.823828125px" height="84.812451171875px" xmlns="http://www.w3.org/2000/svg" viewBox="127.0880859375 32.5937744140625 245.823828125 84.812451171875" style="background: rgba(0, 0, 0, 0);" preserveAspectRatio="xMidYMid"><defs><filter id="editing-extrusion" x="-100%" y="-100%" width="300%" height="300%"><feFlood result="color1" flood-color="#444"></feFlood><feConvolveMatrix order="8,8" divisor="1" kernelMatrix="1 0 0 0 0 0 0 0 0 1 0 0 0 0 0 0 0 0 1 0 0 0 0 0 0 0 0 1 0 0 0 0 0 0 0 0 1 0 0 0 0 0 0 0 0 1 0 0 0 0 0 0 0 0 1 0 0 0 0 0 0 0 0 1" in="SourceAlpha" result="extrude"></feConvolveMatrix><feComposite in="color1" in2="extrude" result="comp-extrude" operator="in"></feComposite><feOffset dx="4" dy="4" in="comp-extrude" result="offset-extrude"></feOffset><feMerge><feMergeNode in="offset-extrude"></feMergeNode><feMergeNode in="SourceGraphic"></feMergeNode></feMerge></filter></defs><g filter="url(#editing-extrusion)"><g transform="translate(167.4915637075901, 94.06500053405762)"><path d="M9.10 0L0.33 0L5.33-26.94L5.33-26.94Q9.39-27.39 15.31-27.39L15.31-27.39L15.31-27.39Q21.24-27.39 23.98-25.67L23.98-25.67L23.98-25.67Q26.73-23.94 26.73-20.48L26.73-20.48L26.73-20.48Q26.73-17.02 24.95-14.84L24.95-14.84L24.95-14.84Q23.17-12.67 20.09-11.97L20.09-11.97L20.09-11.97Q20.79-8.57 22.39-5.82L22.39-5.82L22.39-5.82Q23.86-3.24 25.58-2.42L25.58-2.42L25.58-2.42Q24.97-0.70 23.72 0.06L23.72 0.06L23.72 0.06Q22.47 0.82 20.68 0.82L20.68 0.82L20.68 0.82Q18.90 0.82 17.51-0.23L17.51-0.23L17.51-0.23Q16.11-1.27 15.01-3.20L15.01-3.20L15.01-3.20Q12.67-7.38 12.42-13.98L12.42-13.98L12.71-13.98L12.71-13.98Q15.74-14.06 17.26-15.64L17.26-15.64L17.26-15.64Q18.78-17.22 18.78-20.54L18.78-20.54L18.78-20.54Q18.78-24.68 15.29-24.85L15.29-24.85L14.39-24.85L14.39-24.85Q14.02-24.85 13.82-24.80L13.82-24.80L9.10 0ZM45.22-6.93L45.22-6.93L45.22-6.93Q46.25-6.23 46.25-4.69L46.25-4.69L46.25-4.69Q46.25-3.16 45.47-2.17L45.47-2.17L45.47-2.17Q44.69-1.19 43.42-0.53L43.42-0.53L43.42-0.53Q40.80 0.82 37.97 0.82L37.97 0.82L37.97 0.82Q35.14 0.82 33.48 0.21L33.48 0.21L33.48 0.21Q31.82-0.41 30.71-1.56L30.71-1.56L30.71-1.56Q28.54-3.73 28.54-7.71L28.54-7.71L28.54-7.71Q28.54-13.90 31.90-17.67L31.90-17.67L31.90-17.67Q35.51-21.73 41.78-21.73L41.78-21.73L41.78-21.73Q45.67-21.73 47.60-20.09L47.60-20.09L47.60-20.09Q49.04-18.86 49.04-16.85L49.04-16.85L49.04-16.85Q49.04-9.63 36.57-9.63L36.57-9.63L36.57-9.63Q36.41-8.57 36.41-7.67L36.41-7.67L36.41-7.67Q36.41-5.78 37.25-5.06L37.25-5.06L37.25-5.06Q38.09-4.35 39.65-4.35L39.65-4.35L39.65-4.35Q41.21-4.35 42.87-5.06L42.87-5.06L42.87-5.06Q44.53-5.78 45.22-6.93ZM36.86-11.40L36.86-11.40L36.86-11.40Q39.77-11.40 41.45-13.20L41.45-13.20L41.45-13.20Q43.13-14.92 43.13-17.67L43.13-17.67L43.13-17.67Q43.13-18.61 42.78-19.13L42.78-19.13L42.78-19.13Q42.44-19.64 41.74-19.64L41.74-19.64L41.74-19.64Q41.04-19.64 40.45-19.37L40.45-19.37L40.45-19.37Q39.85-19.11 39.24-18.20L39.24-18.20L39.24-18.20Q37.72-16.15 36.86-11.40ZM53.34-17.14L53.34-17.14L53.34-17.14Q54.74-19.11 56.85-20.42L56.85-20.42L56.85-20.42Q58.96-21.73 61.54-21.73L61.54-21.73L61.54-21.73Q64.12-21.73 65.35-20.91L65.35-20.91L73.39-21.73L70.60-5.99L70.60-5.99Q69.17 2.05 66.13 5.21L66.13 5.21L66.13 5.21Q63.22 8.20 57.56 8.20L57.56 8.20L57.56 8.20Q53.26 8.20 50.80 6.85L50.80 6.85L50.80 6.85Q48.34 5.49 48.34 3.24L48.34 3.24L48.34 3.24Q48.34 1.56 49.61 0.59L49.61 0.59L49.61 0.59Q50.88-0.37 52.85-0.37L52.85-0.37L52.85-0.37Q54.57-0.37 55.88 0.41L55.88 0.41L55.88 0.41Q56.66 0.82 57.03 1.39L57.03 1.39L57.03 1.39Q56.09 2.21 56.09 3.57L56.09 3.57L56.09 3.57Q56.09 5.33 57.73 5.33L57.73 5.33L57.73 5.33Q60.48 5.33 62.03-1.15L62.03-1.15L62.03-1.15Q62.48-2.91 62.85-4.67L62.85-4.67L62.85-4.67Q61.01-2.42 56.83-2.42L56.83-2.42L56.83-2.42Q53.92-2.42 52.23-3.81L52.23-3.81L52.23-3.81Q50.55-5.21 50.55-8.49L50.55-8.49L50.55-8.49Q50.55-10.54 51.25-12.85L51.25-12.85L51.25-12.85Q51.95-15.17 53.34-17.14ZM58.67-8.36L58.67-8.36L58.67-8.36Q58.67-5.58 60.11-5.58L60.11-5.58L60.11-5.58Q61.09-5.58 62.03-6.64L62.03-6.64L62.03-6.64Q62.77-7.50 63.06-8.77L63.06-8.77L65.15-19.31L65.15-19.31Q64.94-19.35 64.74-19.43L64.74-19.43L64.74-19.43Q64.33-19.60 63.80-19.60L63.80-19.60L63.80-19.60Q61.30-19.60 59.82-15.50L59.82-15.50L59.82-15.50Q58.67-12.30 58.67-8.36ZM84.83-2.25L84.83-2.25L84.83-2.25Q83.56 0.82 79.50 0.82L79.50 0.82L79.50 0.82Q77.41 0.82 76.10-0.61L76.10-0.61L76.10-0.61Q74.99-1.89 74.99-3.16L74.99-3.16L74.99-3.16Q74.99-6.48 76.51-12.96L76.51-12.96L78.02-20.91L86.35-21.73L83.84-8.77L83.84-8.77Q83.15-5.74 83.15-4.67L83.15-4.67L83.15-4.67Q83.15-2.34 84.83-2.25ZM78.76-26.61L78.76-26.61L78.76-26.61Q78.76-28.21 80.09-29.07L80.09-29.07L80.09-29.07Q81.43-29.93 83.35-29.93L83.35-29.93L83.35-29.93Q85.28-29.93 86.45-29.07L86.45-29.07L86.45-29.07Q87.62-28.21 87.62-26.61L87.62-26.61L87.62-26.61Q87.62-25.01 86.33-24.19L86.33-24.19L86.33-24.19Q85.03-23.37 83.11-23.37L83.11-23.37L83.11-23.37Q81.18-23.37 79.97-24.19L79.97-24.19L79.97-24.19Q78.76-25.01 78.76-26.61ZM100.57-14.39L100.57-14.39L100.57-14.39Q101.15-15.91 101.15-17.22L101.15-17.22L101.15-17.22Q101.15-19.64 99.18-19.64L99.18-19.64L99.18-19.64Q98.15-19.64 97.31-18.72L97.31-18.72L97.31-18.72Q96.47-17.79 96.47-16.65L96.47-16.65L96.47-16.65Q96.47-15.83 97.13-15.17L97.13-15.17L97.13-15.17Q98.07-14.27 100.49-12.79L100.49-12.79L100.49-12.79Q102.91-11.32 103.83-10.11L103.83-10.11L103.83-10.11Q104.76-8.90 104.76-7.24L104.76-7.24L104.76-7.24Q104.76-5.58 103.96-4.06L103.96-4.06L103.96-4.06Q103.16-2.54 101.72-1.48L101.72-1.48L101.72-1.48Q98.65 0.82 93.73 0.82L93.73 0.82L93.73 0.82Q91.06 0.82 89.01-0.57L89.01-0.57L89.01-0.57Q86.96-1.93 86.96-3.53L86.96-3.53L86.96-3.53Q86.96-5.13 88.13-6.07L88.13-6.07L88.13-6.07Q89.30-7.01 91.02-7.01L91.02-7.01L91.02-7.01Q92.74-7.01 93.81-6.36L93.81-6.36L93.81-6.36Q93.28-5.00 93.28-4.10L93.28-4.10L93.28-4.10Q93.28-1.39 95.57-1.39L95.57-1.39L95.57-1.39Q96.56-1.39 97.21-2.01L97.21-2.01L97.21-2.01Q97.87-2.62 97.87-3.69L97.87-3.69L97.87-3.69Q97.87-5.78 94.34-8.00L94.34-8.00L94.34-8.00Q91.47-9.88 90.81-10.62L90.81-10.62L90.81-10.62Q89.71-11.93 89.71-13.57L89.71-13.57L89.71-13.57Q89.71-15.21 90.49-16.77L90.49-16.77L90.49-16.77Q91.27-18.33 92.70-19.43L92.70-19.43L92.70-19.43Q95.69-21.73 100.90-21.73L100.90-21.73L100.90-21.73Q103.57-21.73 105.14-20.66L105.14-20.66L105.14-20.66Q106.72-19.60 106.72-17.79L106.72-17.79L106.72-17.79Q106.72-15.99 105.64-14.96L105.64-14.96L105.64-14.96Q104.55-13.94 102.58-13.94L102.58-13.94L102.58-13.94Q101.23-13.94 100.57-14.39ZM108.90-4.10L108.90-4.10L108.90-4.10Q108.90-5.21 109.47-8.00L109.47-8.00L111.64-19.07L109.22-19.07L109.39-20.30L109.39-20.30Q114.31-21.77 119.06-25.38L119.06-25.38L121.03-25.38L120.05-20.91L123.25-20.91L122.88-19.07L119.72-19.07L117.63-8.00L117.63-8.00Q117.10-5.45 117.10-4.59L117.10-4.59L117.10-4.59Q117.10-2.62 118.82-2.21L118.82-2.21L118.82-2.21Q118.41-0.82 116.93 0L116.93 0L116.93 0Q115.46 0.82 113.37 0.82L113.37 0.82L113.37 0.82Q111.27 0.82 110.09-0.49L110.09-0.49L110.09-0.49Q108.90-1.80 108.90-4.10ZM139.48-6.93L139.48-6.93L139.48-6.93Q140.51-6.23 140.51-4.69L140.51-4.69L140.51-4.69Q140.51-3.16 139.73-2.17L139.73-2.17L139.73-2.17Q138.95-1.19 137.68-0.53L137.68-0.53L137.68-0.53Q135.05 0.82 132.22 0.82L132.22 0.82L132.22 0.82Q129.40 0.82 127.74 0.21L127.74 0.21L127.74 0.21Q126.08-0.41 124.97-1.56L124.97-1.56L124.97-1.56Q122.80-3.73 122.80-7.71L122.80-7.71L122.80-7.71Q122.80-13.90 126.16-17.67L126.16-17.67L126.16-17.67Q129.77-21.73 136.04-21.73L136.04-21.73L136.04-21.73Q139.93-21.73 141.86-20.09L141.86-20.09L141.86-20.09Q143.30-18.86 143.30-16.85L143.30-16.85L143.30-16.85Q143.30-9.63 130.83-9.63L130.83-9.63L130.83-9.63Q130.67-8.57 130.67-7.67L130.67-7.67L130.67-7.67Q130.67-5.78 131.51-5.06L131.51-5.06L131.51-5.06Q132.35-4.35 133.91-4.35L133.91-4.35L133.91-4.35Q135.46-4.35 137.12-5.06L137.12-5.06L137.12-5.06Q138.78-5.78 139.48-6.93ZM131.12-11.40L131.12-11.40L131.12-11.40Q134.03-11.40 135.71-13.20L135.71-13.20L135.71-13.20Q137.39-14.92 137.39-17.67L137.39-17.67L137.39-17.67Q137.39-18.61 137.04-19.13L137.04-19.13L137.04-19.13Q136.69-19.64 136.00-19.64L136.00-19.64L136.00-19.64Q135.30-19.64 134.71-19.37L134.71-19.37L134.71-19.37Q134.11-19.11 133.50-18.20L133.50-18.20L133.50-18.20Q131.98-16.15 131.12-11.40ZM157.52-11.52L157.52-11.52L157.52-11.52Q159.00-14.15 159.00-16.81L159.00-16.81L159.00-16.81Q159.00-18.57 157.73-18.57L157.73-18.57L157.73-18.57Q156.74-18.57 155.72-16.89L155.72-16.89L155.72-16.89Q154.65-15.21 154.32-13.04L154.32-13.04L152.19 0L143.71 0.82L147.89-20.91L154.65-21.73L153.91-17.59L153.91-17.59Q155.92-21.73 160.43-21.73L160.43-21.73L160.43-21.73Q162.81-21.73 164.10-20.50L164.10-20.50L164.10-20.50Q165.39-19.27 165.39-16.75L165.39-16.75L165.39-16.75Q165.39-14.23 163.73-12.63L163.73-12.63L163.73-12.63Q162.07-11.03 159.24-11.03L159.24-11.03L159.24-11.03Q158.01-11.03 157.52-11.52Z" fill="#ccc"></path></g></g><style>text {
  font-size: 64px;
  font-family: Arial Black;
  dominant-baseline: central;
  text-anchor: middle;
}</style></svg>