<svg width="326.44619140624997px" height="84.812451171875px" xmlns="http://www.w3.org/2000/svg" viewBox="86.77690429687502 32.5937744140625 326.44619140624997 84.812451171875" style="background: rgba(0, 0, 0, 0);" preserveAspectRatio="xMidYMid"><defs><filter id="editing-extrusion" x="-100%" y="-100%" width="300%" height="300%"><feFlood result="color1" flood-color="#444"></feFlood><feConvolveMatrix order="7,7" divisor="1" kernelMatrix="1 0 0 0 0 0 0 0 1 0 0 0 0 0 0 0 1 0 0 0 0 0 0 0 1 0 0 0 0 0 0 0 1 0 0 0 0 0 0 0 1 0 0 0 0 0 0 0 1" in="SourceAlpha" result="extrude"></feConvolveMatrix><feComposite in="color1" in2="extrude" result="comp-extrude" operator="in"></feComposite><feOffset dx="3.5" dy="3.5" in="comp-extrude" result="offset-extrude"></feOffset><feMerge><feMergeNode in="offset-extrude"></feMergeNode><feMergeNode in="SourceGraphic"></feMergeNode></feMerge></filter></defs><g filter="url(#editing-extrusion)"><g transform="translate(137.31405973434448, 90.17000007629395)"><path d="M1.48-6.07L1.48-6.07L1.48-6.07Q1.48-7.67 1.89-9.72L1.89-9.72L5.21-27.06L14.27-27.06L10.99-9.59L10.99-9.59Q10.62-7.67 10.62-6.25L10.62-6.25L10.62-6.25Q10.62-4.84 11.21-4.10L11.21-4.10L11.21-4.10Q11.81-3.36 12.92-3.36L12.92-3.36L12.92-3.36Q14.02-3.36 14.72-3.65L14.72-3.65L14.72-3.65Q15.42-3.94 15.99-4.63L15.99-4.63L15.99-4.63Q17.10-6.03 17.79-9.59L17.79-9.59L21.12-27.06L27.31-27.06L24.03-9.63L24.03-9.63Q22.88-3.81 19.72-1.48L19.72-1.48L19.72-1.48Q16.65 0.82 10.58 0.82L10.58 0.82L10.58 0.82Q6.03 0.82 3.61-1.15L3.61-1.15L3.61-1.15Q1.48-2.87 1.48-6.07ZM40.39-14.39L40.39-14.39L40.39-14.39Q40.96-15.91 40.96-17.22L40.96-17.22L40.96-17.22Q40.96-19.64 38.99-19.64L38.99-19.64L38.99-19.64Q37.97-19.64 37.13-18.72L37.13-18.72L37.13-18.72Q36.29-17.79 36.29-16.65L36.29-16.65L36.29-16.65Q36.29-15.83 36.94-15.17L36.94-15.17L36.94-15.17Q37.88-14.27 40.30-12.79L40.30-12.79L40.30-12.79Q42.72-11.32 43.64-10.11L43.64-10.11L43.64-10.11Q44.57-8.90 44.57-7.24L44.57-7.24L44.57-7.24Q44.57-5.58 43.77-4.06L43.77-4.06L43.77-4.06Q42.97-2.54 41.53-1.48L41.53-1.48L41.53-1.48Q38.46 0.82 33.54 0.82L33.54 0.82L33.54 0.82Q30.87 0.82 28.82-0.57L28.82-0.57L28.82-0.57Q26.77-1.93 26.77-3.53L26.77-3.53L26.77-3.53Q26.77-5.13 27.94-6.07L27.94-6.07L27.94-6.07Q29.11-7.01 30.83-7.01L30.83-7.01L30.83-7.01Q32.55-7.01 33.62-6.36L33.62-6.36L33.62-6.36Q33.09-5.00 33.09-4.10L33.09-4.10L33.09-4.10Q33.09-1.39 35.38-1.39L35.38-1.39L35.38-1.39Q36.37-1.39 37.02-2.01L37.02-2.01L37.02-2.01Q37.68-2.62 37.68-3.69L37.68-3.69L37.68-3.69Q37.68-5.78 34.15-8.00L34.15-8.00L34.15-8.00Q31.28-9.88 30.63-10.62L30.63-10.62L30.63-10.62Q29.52-11.93 29.52-13.57L29.52-13.57L29.52-13.57Q29.52-15.21 30.30-16.77L30.30-16.77L30.30-16.77Q31.08-18.33 32.51-19.43L32.51-19.43L32.51-19.43Q35.51-21.73 40.71-21.73L40.71-21.73L40.71-21.73Q43.38-21.73 44.96-20.66L44.96-20.66L44.96-20.66Q46.54-19.60 46.54-17.79L46.54-17.79L46.54-17.79Q46.54-15.99 45.45-14.96L45.45-14.96L45.45-14.96Q44.36-13.94 42.39-13.94L42.39-13.94L42.39-13.94Q41.04-13.94 40.39-14.39ZM64.66-6.93L64.66-6.93L64.66-6.93Q65.68-6.23 65.68-4.69L65.68-4.69L65.68-4.69Q65.68-3.16 64.90-2.17L64.90-2.17L64.90-2.17Q64.12-1.19 62.85-0.53L62.85-0.53L62.85-0.53Q60.23 0.82 57.40 0.82L57.40 0.82L57.40 0.82Q54.57 0.82 52.91 0.21L52.91 0.21L52.91 0.21Q51.25-0.41 50.14-1.56L50.14-1.56L50.14-1.56Q47.97-3.73 47.97-7.71L47.97-7.71L47.97-7.71Q47.97-13.90 51.33-17.67L51.33-17.67L51.33-17.67Q54.94-21.73 61.21-21.73L61.21-21.73L61.21-21.73Q65.11-21.73 67.03-20.09L67.03-20.09L67.03-20.09Q68.47-18.86 68.47-16.85L68.47-16.85L68.47-16.85Q68.47-9.63 56.01-9.63L56.01-9.63L56.01-9.63Q55.84-8.57 55.84-7.67L55.84-7.67L55.84-7.67Q55.84-5.78 56.68-5.06L56.68-5.06L56.68-5.06Q57.52-4.35 59.08-4.35L59.08-4.35L59.08-4.35Q60.64-4.35 62.30-5.06L62.30-5.06L62.30-5.06Q63.96-5.78 64.66-6.93ZM56.29-11.40L56.29-11.40L56.29-11.40Q59.20-11.40 60.89-13.20L60.89-13.20L60.89-13.20Q62.57-14.92 62.57-17.67L62.57-17.67L62.57-17.67Q62.57-18.61 62.22-19.13L62.22-19.13L62.22-19.13Q61.87-19.64 61.17-19.64L61.17-19.64L61.17-19.64Q60.48-19.64 59.88-19.37L59.88-19.37L59.88-19.37Q59.29-19.11 58.67-18.20L58.67-18.20L58.67-18.20Q57.15-16.15 56.29-11.40ZM82.70-11.52L82.70-11.52L82.70-11.52Q84.17-14.15 84.17-16.81L84.17-16.81L84.17-16.81Q84.17-18.57 82.90-18.57L82.90-18.57L82.90-18.57Q81.92-18.57 80.89-16.89L80.89-16.89L80.89-16.89Q79.83-15.21 79.50-13.04L79.50-13.04L77.37 0L68.88 0.82L73.06-20.91L79.83-21.73L79.09-17.59L79.09-17.59Q81.10-21.73 85.61-21.73L85.61-21.73L85.61-21.73Q87.99-21.73 89.28-20.50L89.28-20.50L89.28-20.50Q90.57-19.27 90.57-16.75L90.57-16.75L90.57-16.75Q90.57-14.23 88.91-12.63L88.91-12.63L88.91-12.63Q87.25-11.03 84.42-11.03L84.42-11.03L84.42-11.03Q83.19-11.03 82.70-11.52ZM115.70-27.35L115.70-27.35L115.70-27.35Q125.75-27.35 125.75-20.25L125.75-20.25L125.75-20.25Q125.75-16.36 123.25-14.02L123.25-14.02L123.25-14.02Q120.79-11.69 116.48-11.69L116.48-11.69L116.48-11.69Q114.47-11.69 112.91-12.83L112.91-12.83L112.91-12.83Q112.18-13.33 111.68-13.98L111.68-13.98L111.68-13.98Q114.68-13.98 116.26-15.81L116.26-15.81L116.26-15.81Q117.83-17.63 117.83-21.20L117.83-21.20L117.83-21.20Q117.83-24.76 114.31-24.76L114.31-24.76L113.32-24.76L113.32-24.76Q113.08-24.76 112.87-24.72L112.87-24.72L108.16 0L99.26 0L104.30-26.86L104.30-26.86Q108.69-27.27 111.23-27.31L111.23-27.31L111.23-27.31Q113.78-27.35 115.70-27.35ZM134.89 0.82L134.89 0.82L134.89 0.82Q125.87 0.82 125.87-7.67L125.87-7.67L125.87-7.67Q125.87-13.69 129.19-17.59L129.19-17.59L129.19-17.59Q132.72-21.73 138.83-21.73L138.83-21.73L138.83-21.73Q143.25-21.73 145.51-19.68L145.51-19.68L145.51-19.68Q147.76-17.63 147.76-13.33L147.76-13.33L147.76-13.33Q147.76-6.77 144.24-2.95L144.24-2.95L144.24-2.95Q140.79 0.82 134.89 0.82ZM135.96-17.02L135.96-17.02L135.96-17.02Q135.46-15.91 135.07-14.25L135.07-14.25L135.07-14.25Q134.69-12.59 134.19-9.96L134.19-9.96L134.19-9.96Q133.70-7.34 133.70-4.10L133.70-4.10L133.70-4.10Q133.70-3.03 134.05-2.34L134.05-2.34L134.05-2.34Q134.40-1.64 135.34-1.64L135.34-1.64L135.34-1.64Q136.28-1.64 136.88-2.09L136.88-2.09L136.88-2.09Q137.47-2.54 137.92-3.61L137.92-3.61L137.92-3.61Q138.74-5.49 139.40-9.00L139.40-9.00L139.40-9.00Q140.06-12.51 140.12-14.02L140.12-14.02L140.12-14.02Q140.18-15.54 140.18-16.67L140.18-16.67L140.18-16.67Q140.18-17.79 139.85-18.53L139.85-18.53L139.85-18.53Q139.52-19.27 138.60-19.27L138.60-19.27L138.60-19.27Q137.68-19.27 137.06-18.70L137.06-18.70L137.06-18.70Q136.45-18.12 135.96-17.02ZM163.02-11.52L163.02-11.52L163.02-11.52Q164.49-14.15 164.49-16.81L164.49-16.81L164.49-16.81Q164.49-18.57 163.22-18.57L163.22-18.57L163.22-18.57Q162.24-18.57 161.21-16.89L161.21-16.89L161.21-16.89Q160.15-15.21 159.82-13.04L159.82-13.04L157.69 0L149.20 0.82L153.38-20.91L160.15-21.73L159.41-17.59L159.41-17.59Q161.42-21.73 165.93-21.73L165.93-21.73L165.93-21.73Q168.31-21.73 169.60-20.50L169.60-20.50L169.60-20.50Q170.89-19.27 170.89-16.75L170.89-16.75L170.89-16.75Q170.89-14.23 169.23-12.63L169.23-12.63L169.23-12.63Q167.57-11.03 164.74-11.03L164.74-11.03L164.74-11.03Q163.51-11.03 163.02-11.52ZM172.20-4.10L172.20-4.10L172.20-4.10Q172.20-5.21 172.77-8.00L172.77-8.00L174.95-19.07L172.53-19.07L172.69-20.30L172.69-20.30Q177.61-21.77 182.37-25.38L182.37-25.38L184.34-25.38L183.35-20.91L186.55-20.91L186.18-19.07L183.02-19.07L180.93-8.00L180.93-8.00Q180.40-5.45 180.40-4.59L180.40-4.59L180.40-4.59Q180.40-2.62 182.12-2.21L182.12-2.21L182.12-2.21Q181.71-0.82 180.24 0L180.24 0L180.24 0Q178.76 0.82 176.67 0.82L176.67 0.82L176.67 0.82Q174.58 0.82 173.39-0.49L173.39-0.49L173.39-0.49Q172.20-1.80 172.20-4.10ZM187.96-1.23L187.96-1.23L187.96-1.23Q187.00-2.30 186.57-3.98L186.57-3.98L186.57-3.98Q186.14-5.66 186.14-8.41L186.14-8.41L186.14-8.41Q186.14-11.15 187.08-13.65L187.08-13.65L187.08-13.65Q188.03-16.15 189.75-17.96L189.75-17.96L189.75-17.96Q193.27-21.73 199.10-21.73L199.10-21.73L199.10-21.73Q201.19-21.73 202.70-21.03L202.70-21.03L209.72-21.73L206.68-5.74L206.68-5.74Q206.56-5.25 206.56-4.35L206.56-4.35L206.56-4.35Q206.56-3.44 207.11-2.87L207.11-2.87L207.11-2.87Q207.67-2.30 208.49-2.21L208.49-2.21L208.49-2.21Q208.08-0.82 206.58 0L206.58 0L206.58 0Q205.08 0.82 203.40 0.82L203.40 0.82L203.40 0.82Q201.72 0.82 200.59 0.18L200.59 0.18L200.59 0.18Q199.47-0.45 199.14-1.52L199.14-1.52L199.14-1.52Q198.48-0.49 197.09 0.16L197.09 0.16L197.09 0.16Q195.69 0.82 193.83 0.82L193.83 0.82L193.83 0.82Q191.96 0.82 190.45 0.33L190.45 0.33L190.45 0.33Q188.93-0.16 187.96-1.23ZM196.62-17.88L196.62-17.88L196.62-17.88Q196.14-17.14 195.73-15.89L195.73-15.89L195.73-15.89Q195.32-14.64 194.65-11.30L194.65-11.30L194.65-11.30Q193.97-7.95 193.97-5.58L193.97-5.58L193.97-5.58Q193.97-3.20 194.34-2.50L194.34-2.50L194.34-2.50Q194.71-1.80 195.37-1.80L195.37-1.80L195.37-1.80Q196.68-1.80 197.64-3.05L197.64-3.05L197.64-3.05Q198.60-4.31 198.97-6.52L198.97-6.52L201.15-18.53L201.15-18.53Q200.28-19.27 199.28-19.27L199.28-19.27L199.28-19.27Q198.28-19.27 197.68-18.94L197.68-18.94L197.68-18.94Q197.09-18.61 196.62-17.88ZM221.73-2.25L221.73-2.25L221.73-2.25Q220.46 0.82 216.40 0.82L216.40 0.82L216.40 0.82Q214.35 0.82 213.04-0.61L213.04-0.61L213.04-0.61Q211.97-1.80 211.97-3.16L211.97-3.16L211.97-3.16Q211.97-6.23 213.41-12.96L213.41-12.96L216.40-28.70L224.72-29.52L220.74-8.77L220.74-8.77Q220.05-5.74 220.05-4.67L220.05-4.67L220.05-4.67Q220.05-2.34 221.73-2.25Z" fill="#ccc"></path></g></g><style>text {
  font-size: 64px;
  font-family: Arial Black;
  dominant-baseline: central;
  text-anchor: middle;
}</style></svg>